<svg width="24" height="24" viewBox="0 0 24 24" fill="none" xmlns="http://www.w3.org/2000/svg">
<g id="&#240;&#159;&#166;&#134; icon &#34;magnifying glass&#34;">
<path id="Vector" d="M10.0483 0.0287093C4.50737 0.0287093 0 4.53608 0 10.077C0 15.6179 4.50737 20.1252 10.0483 20.1252C11.7421 20.1252 13.4073 19.7233 14.814 18.9482C14.9267 19.0838 15.0516 19.2087 15.1872 19.3214L18.0582 22.1923C18.3233 22.4906 18.6465 22.7316 19.0081 22.9004C19.3697 23.0692 19.762 23.1624 20.1609 23.1741C20.5598 23.1859 20.9569 23.116 21.3278 22.9687C21.6986 22.8214 22.0355 22.5999 22.3177 22.3177C22.5999 22.0355 22.8214 21.6986 22.9687 21.3278C23.116 20.9569 23.1859 20.5598 23.1741 20.1609C23.1624 19.762 23.0692 19.3697 22.9004 19.0081C22.7316 18.6465 22.4906 18.3233 22.1923 18.0582L19.3214 15.1872C19.1815 15.0473 19.0276 14.9223 18.862 14.814C19.6372 13.4073 20.1252 11.7708 20.1252 10.0483C20.1252 4.50737 15.6179 0 10.077 0L10.0483 0.0287093ZM10.0483 2.89964C14.0389 2.89964 17.2256 6.08638 17.2256 10.077C17.2256 11.9718 16.5366 13.7231 15.3308 15.015C15.3021 15.0437 15.2734 15.0724 15.2447 15.1011C15.1091 15.2138 14.9841 15.3387 14.8714 15.4743C13.6082 16.6227 11.8857 17.283 10.0196 17.283C6.02896 17.283 2.84222 14.0963 2.84222 10.1057C2.84222 6.11509 6.02896 2.92835 10.0196 2.92835L10.0483 2.89964Z" fill="black"/>
</g>
</svg>
