<svg width="21" height="21" viewBox="0 0 21 21" fill="none" xmlns="http://www.w3.org/2000/svg">
<g id="&#240;&#159;&#166;&#134; icon &#34;euro&#34;">
<path id="Vector" d="M15.7284 0C10.8538 0 6.81777 3.35461 5.66462 7.86236H0.65892L0.00372314 10.4831H5.2715C5.2715 11.4004 5.45496 12.2653 5.69083 13.1039H0.52788L0.029931 15.7247H6.73914C8.57369 18.8435 11.9021 20.9663 15.7547 20.9663C17.6678 20.9663 19.45 20.4159 20.9962 19.4987V16.3013C19.6072 17.5593 17.7989 18.3455 15.7547 18.3455C13.4222 18.3455 11.3779 17.3234 9.9365 15.7247H15.7547L16.174 13.1039H8.39024C8.10195 12.2653 7.89229 11.4266 7.89229 10.4831H16.6457L17.065 7.86236H8.39024C9.46476 4.82225 12.3476 2.62079 15.7547 2.62079C17.4844 2.62079 19.0568 3.17115 20.341 4.08843L20.7604 1.31039C19.2665 0.497949 17.5892 0 15.7547 0H15.7284Z" fill="black"/>
</g>
</svg>
