<svg width="36" height="28" viewBox="0 0 36 28" fill="none" xmlns="http://www.w3.org/2000/svg">
<g id="&#240;&#159;&#166;&#134; icon &#34;cart&#34;">
<path id="Vector" d="M1.91898 0.00913271C1.32213 0.104628 0.787668 0.433309 0.433159 0.922869C0.0786496 1.41243 -0.0668626 2.02277 0.0286329 2.61961C0.124128 3.21646 0.452809 3.75093 0.942369 4.10544C1.43193 4.45994 2.04227 4.60546 2.63911 4.50996H9.39036L9.79543 5.63517L11.6408 11.2612L13.4861 16.8872C13.6661 17.4723 14.4313 18.0124 15.0164 18.0124H30.7693C31.3994 18.0124 32.1195 17.4723 32.2996 16.8872L35.9452 5.63517C36.1253 5.05006 35.8552 4.50996 35.2251 4.50996H15.2414L13.5311 1.26936C13.349 0.897413 13.0677 0.582946 12.7183 0.360591C12.3688 0.138237 11.9649 0.0166199 11.5508 0.00913271L2.5491 0.00913271C2.41435 -0.00304424 2.27877 -0.00304424 2.14402 0.00913271C2.05409 0.00372685 1.96391 0.00372685 1.87397 0.00913271L1.91898 0.00913271ZM16.1416 22.5133C14.8814 22.5133 13.8912 23.5035 13.8912 24.7637C13.8912 26.0239 14.8814 27.0141 16.1416 27.0141C17.4018 27.0141 18.392 26.0239 18.392 24.7637C18.392 23.5035 17.4018 22.5133 16.1416 22.5133ZM29.6441 22.5133C28.3839 22.5133 27.3937 23.5035 27.3937 24.7637C27.3937 26.0239 28.3839 27.0141 29.6441 27.0141C30.9043 27.0141 31.8945 26.0239 31.8945 24.7637C31.8945 23.5035 30.9043 22.5133 29.6441 22.5133Z" fill="black"/>
</g>
</svg>
